<?xml version="1.0" standalone="no"?>
<!DOCTYPE svg PUBLIC "-//W3C//DTD SVG 20010904//EN"
 "http://www.w3.org/TR/2001/REC-SVG-20010904/DTD/svg10.dtd">
<svg version="1.0" xmlns="http://www.w3.org/2000/svg"
 width="1410.000000pt" height="1410.000000pt" viewBox="0 0 1410.000000 1410.000000"
 preserveAspectRatio="xMidYMid meet">
<metadata>
Created by potrace 1.11, written by Peter Selinger 2001-2013
</metadata>
<g transform="translate(0.000000,1410.000000) scale(0.100000,-0.100000)"
fill="#000000" stroke="none">
<path d="M6600 14003 c0 -5 -21 -9 -48 -9 -46 -1 -156 -11 -217 -19 -16 -2
-52 -7 -80 -10 -27 -3 -68 -8 -90 -11 -22 -4 -49 -7 -60 -9 -11 -1 -20 -3 -20
-4 0 -1 -18 -4 -40 -6 -22 -2 -53 -6 -70 -10 -16 -3 -46 -8 -65 -11 -19 -2
-42 -7 -50 -9 -18 -6 -90 -18 -107 -18 -7 0 -13 -4 -13 -8 0 -4 -8 -6 -17 -5
-10 2 -31 -1 -48 -6 -16 -5 -41 -11 -55 -13 -33 -6 -111 -24 -172 -40 -27 -7
-55 -14 -78 -20 -38 -8 -175 -46 -190 -52 -8 -3 -24 -8 -35 -10 -18 -3 -390
-126 -425 -140 -8 -3 -18 -5 -22 -5 -5 1 -8 -2 -8 -8 0 -6 -3 -9 -7 -8 -16 3
-63 -15 -63 -24 0 -5 -4 -6 -10 -3 -5 3 -21 -1 -34 -10 -14 -9 -26 -15 -28
-13 -5 5 -193 -75 -200 -87 -4 -5 -8 -6 -8 -1 0 5 -6 3 -13 -3 -8 -6 -17 -8
-20 -4 -4 3 -7 1 -7 -6 0 -7 -4 -9 -10 -6 -5 3 -10 1 -10 -5 0 -6 -4 -9 -9 -6
-5 3 -21 -4 -37 -16 -15 -13 -25 -17 -21 -11 9 14 -54 -16 -64 -30 -3 -5 -9
-8 -13 -7 -12 2 -126 -54 -126 -62 0 -4 -9 -8 -19 -8 -11 0 -27 -8 -37 -17
-10 -10 -20 -17 -23 -17 -12 3 -76 -31 -107 -56 -16 -13 -17 -13 -9 0 8 13 7
13 -11 0 -10 -8 -25 -22 -32 -30 -12 -13 -13 -13 -7 0 6 13 5 13 -7 0 -7 -8
-20 -16 -28 -18 -8 -2 -18 -9 -22 -15 -4 -7 -8 -8 -8 -3 0 5 -8 2 -17 -6 -10
-9 -28 -19 -41 -23 -12 -3 -19 -11 -16 -17 4 -6 2 -8 -4 -4 -6 3 -18 -2 -28
-11 -10 -10 -20 -17 -23 -15 -3 1 -14 -5 -23 -13 -10 -8 -18 -12 -18 -8 0 3
-8 0 -17 -8 -10 -8 -30 -21 -45 -29 -16 -7 -28 -17 -28 -22 0 -5 -4 -6 -10 -3
-5 3 -10 1 -10 -4 0 -6 -6 -11 -14 -11 -8 0 -17 -7 -20 -16 -3 -8 -10 -12 -16
-9 -5 3 -10 1 -10 -4 0 -6 -5 -11 -10 -11 -12 0 -114 -70 -118 -82 -2 -4 -8
-6 -13 -2 -5 3 -12 -2 -15 -10 -3 -9 -10 -13 -15 -10 -5 3 -9 0 -9 -5 0 -6 -6
-11 -14 -11 -8 0 -17 -7 -20 -16 -3 -8 -10 -13 -15 -10 -5 4 -11 2 -13 -2 -1
-5 -39 -33 -82 -63 -44 -30 -92 -66 -108 -81 -16 -15 -32 -28 -36 -28 -4 -1
-6 -6 -5 -11 2 -5 -3 -9 -10 -9 -15 0 -60 -33 -101 -75 -16 -16 -26 -23 -21
-15 4 8 -1 6 -12 -5 -11 -11 -37 -33 -58 -50 -60 -48 -117 -98 -152 -133 -18
-18 -33 -31 -33 -27 0 4 -7 0 -15 -9 -8 -8 -15 -19 -15 -25 0 -5 -5 -13 -12
-17 -7 -5 -8 -2 -3 7 7 13 -13 -6 -130 -117 -22 -21 -39 -42 -38 -46 2 -5 -1
-8 -5 -8 -16 0 -101 -83 -95 -93 3 -6 1 -7 -5 -3 -7 4 -19 -6 -30 -23 -10 -17
-21 -29 -23 -28 -2 2 -20 -12 -39 -32 -19 -19 -28 -31 -20 -27 8 4 6 1 -5 -8
-30 -23 -37 -29 -80 -78 -120 -136 -150 -172 -148 -179 2 -5 0 -8 -5 -6 -4 1
-7 0 -8 -3 0 -3 -14 -18 -30 -35 -16 -16 -43 -48 -59 -69 -17 -21 -35 -44 -42
-51 -7 -7 -9 -15 -6 -19 4 -3 -1 -6 -11 -6 -9 0 -15 -4 -11 -9 3 -6 -1 -13 -8
-18 -7 -4 -24 -24 -38 -43 -13 -19 -30 -39 -37 -43 -7 -5 -10 -12 -7 -18 4 -5
2 -9 -4 -9 -8 0 -49 -53 -96 -127 -5 -9 -20 -27 -33 -41 -12 -14 -20 -27 -18
-29 2 -2 -9 -18 -25 -36 -16 -17 -27 -33 -25 -35 2 -2 -7 -15 -20 -29 -13 -14
-22 -28 -20 -30 2 -3 -4 -13 -15 -24 -11 -11 -17 -25 -13 -31 4 -7 3 -8 -4 -4
-7 4 -12 2 -12 -4 0 -6 -7 -18 -15 -27 -8 -8 -13 -19 -10 -24 4 -5 2 -9 -3 -9
-12 0 -78 -109 -74 -122 1 -5 -2 -7 -8 -3 -9 5 -12 -1 -9 -22 0 -3 -6 -10 -15
-15 -9 -5 -14 -13 -11 -19 4 -5 -1 -12 -10 -15 -9 -4 -14 -12 -11 -19 3 -8 -2
-16 -10 -19 -8 -3 -14 -12 -14 -21 0 -8 -5 -15 -11 -15 -5 0 -7 -4 -4 -10 3
-5 1 -10 -4 -10 -6 0 -11 -5 -11 -12 0 -6 -8 -20 -18 -31 -12 -15 -13 -18 -2
-12 13 8 13 7 0 -11 -8 -10 -21 -25 -27 -32 -7 -7 -13 -17 -13 -22 0 -5 -13
-32 -30 -60 -16 -27 -27 -50 -24 -50 3 0 -4 -12 -15 -26 -11 -15 -18 -30 -16
-34 3 -5 1 -11 -5 -15 -10 -6 -55 -97 -51 -104 2 -2 -1 -7 -6 -10 -11 -8 -59
-113 -55 -123 1 -4 -2 -8 -7 -8 -8 0 -32 -55 -36 -80 0 -3 -7 -16 -15 -30 -14
-23 -38 -83 -43 -105 -1 -5 -8 -16 -15 -24 -7 -7 -11 -19 -8 -27 3 -7 -2 -18
-10 -25 -8 -7 -13 -18 -10 -26 3 -7 1 -13 -5 -13 -6 0 -7 -4 -4 -10 3 -5 2
-10 -3 -10 -6 0 -13 -11 -16 -25 -3 -13 -11 -37 -17 -52 -6 -15 -10 -29 -10
-30 0 -2 -8 -23 -19 -49 -11 -25 -18 -50 -15 -54 3 -5 1 -11 -4 -14 -8 -6 -40
-88 -45 -119 -1 -7 -8 -23 -15 -35 -7 -13 -10 -26 -7 -29 3 -4 1 -11 -4 -18
-5 -6 -12 -22 -14 -36 -3 -13 -5 -24 -6 -24 -1 0 -3 -7 -5 -15 -3 -8 -14 -46
-26 -85 -11 -38 -22 -77 -24 -85 -1 -8 -5 -22 -8 -30 -4 -8 -9 -26 -11 -40 -3
-14 -5 -25 -6 -25 -1 0 -3 -8 -6 -17 -2 -10 -6 -26 -8 -35 -3 -10 -5 -18 -6
-18 -1 0 -4 -10 -6 -22 -8 -44 -11 -58 -17 -73 -3 -8 -8 -28 -11 -45 -5 -30
-11 -60 -22 -105 -3 -14 -7 -34 -9 -45 -2 -11 -6 -31 -10 -45 -3 -14 -7 -38
-10 -55 -2 -16 -6 -41 -9 -55 -12 -56 -16 -77 -20 -110 -3 -19 -8 -46 -11 -60
-3 -14 -8 -45 -10 -70 -2 -25 -6 -56 -9 -70 -6 -25 -15 -101 -21 -170 -2 -19
-6 -62 -10 -95 -35 -315 -40 -954 -10 -1250 3 -27 8 -75 10 -105 5 -60 11
-111 20 -180 11 -84 14 -105 19 -151 3 -26 8 -60 11 -75 3 -16 8 -44 10 -62 2
-18 7 -42 10 -53 4 -11 8 -33 11 -49 11 -77 30 -171 34 -177 2 -2 4 -12 5 -23
1 -11 3 -21 4 -22 1 -2 4 -18 7 -36 2 -18 8 -41 14 -51 5 -10 7 -21 3 -24 -3
-4 -1 -13 5 -20 7 -8 10 -16 7 -18 -2 -3 9 -54 26 -114 16 -61 32 -125 36
-143 3 -17 9 -32 12 -32 4 0 7 -8 8 -17 1 -10 8 -43 17 -73 9 -30 19 -63 21
-74 2 -10 9 -24 15 -30 5 -7 8 -15 5 -18 -3 -3 1 -20 8 -39 8 -19 18 -43 22
-54 4 -11 9 -25 11 -32 6 -31 28 -89 37 -100 5 -7 6 -13 2 -13 -4 0 -2 -7 5
-15 7 -8 9 -15 5 -15 -4 0 -2 -7 5 -15 7 -8 9 -15 4 -15 -4 0 -3 -5 4 -12 7
-7 12 -20 12 -30 0 -10 4 -18 10 -18 5 0 7 -7 4 -15 -4 -8 -1 -15 6 -15 6 0 8
-4 5 -10 -3 -5 -2 -10 3 -10 5 0 9 -6 9 -13 0 -21 37 -107 46 -107 5 0 5 -5 2
-10 -4 -6 3 -26 15 -45 12 -19 19 -35 16 -35 -3 0 3 -16 14 -35 11 -20 20 -42
20 -50 0 -8 5 -15 10 -15 6 0 9 -3 8 -7 -3 -13 13 -57 27 -73 8 -8 13 -19 13
-23 0 -13 95 -202 104 -205 5 -2 6 -8 2 -13 -3 -5 0 -9 5 -9 6 0 10 -3 9 -7
-4 -12 26 -73 35 -73 5 0 6 -4 3 -8 -3 -5 2 -18 12 -28 9 -11 18 -26 20 -34 2
-8 8 -17 13 -18 5 -2 7 -8 4 -12 -3 -5 3 -18 15 -30 11 -11 20 -22 20 -25 0
-3 0 -9 0 -13 0 -5 9 -18 20 -30 11 -12 20 -23 19 -24 -1 -2 1 -13 5 -26 5
-13 12 -20 19 -16 7 4 9 4 5 -1 -8 -9 22 -65 35 -65 4 0 6 -4 3 -8 -3 -5 9
-26 27 -47 18 -22 26 -35 18 -31 -8 6 -7 -1 4 -18 10 -14 22 -26 28 -26 6 0 7
-3 4 -6 -6 -7 28 -63 46 -75 5 -3 8 -9 7 -13 -1 -8 124 -191 160 -233 5 -7 10
-16 10 -20 0 -15 67 -92 74 -85 4 4 7 2 6 -3 -5 -22 1 -35 15 -35 8 0 14 -3
13 -7 -3 -14 37 -73 50 -73 6 0 12 -6 12 -14 0 -8 14 -28 30 -46 17 -18 30
-36 30 -41 0 -5 4 -9 9 -9 5 0 13 -9 16 -20 4 -11 10 -18 15 -15 5 3 11 -4 15
-15 3 -11 11 -20 16 -20 5 0 9 -5 9 -10 0 -6 18 -29 40 -50 23 -22 38 -40 34
-40 -3 0 8 -14 25 -32 17 -17 31 -35 31 -40 0 -4 8 -8 17 -8 9 0 13 -3 10 -7
-4 -3 11 -23 32 -45 22 -21 36 -38 33 -38 -4 0 5 -8 21 -18 15 -10 25 -21 22
-24 -3 -3 2 -11 12 -19 14 -12 16 -12 8 0 -5 10 -4 12 4 7 6 -4 9 -11 7 -15
-5 -8 279 -293 290 -291 3 1 15 -11 25 -27 10 -15 19 -25 19 -21 0 4 12 -5 28
-20 54 -55 135 -127 127 -112 -4 8 9 -4 30 -28 20 -24 39 -41 42 -39 2 2 18
-10 36 -27 18 -17 50 -44 72 -61 22 -16 53 -41 70 -55 56 -47 110 -85 118 -82
4 1 7 -5 7 -13 0 -8 4 -15 9 -15 4 0 25 -13 46 -30 20 -16 41 -27 46 -24 5 3
8 1 7 -4 -2 -6 2 -11 7 -13 6 -2 20 -13 33 -24 13 -11 27 -19 30 -19 4 1 13
-7 20 -17 7 -11 19 -19 26 -19 7 0 21 -9 31 -20 10 -11 22 -20 27 -20 5 0 18
-9 30 -20 12 -11 28 -20 35 -20 7 0 13 -5 13 -12 0 -6 3 -9 6 -5 4 3 12 1 20
-6 30 -27 43 -37 50 -37 3 0 17 -9 31 -20 14 -11 30 -17 36 -13 5 3 7 2 4 -3
-3 -6 3 -16 15 -23 16 -10 19 -10 12 1 -6 11 31 -15 46 -33 6 -7 37 -19 47
-18 3 1 10 -6 15 -15 5 -9 16 -16 23 -16 8 0 15 -5 15 -11 0 -6 7 -8 16 -5 8
3 12 2 9 -3 -3 -5 5 -13 17 -17 13 -3 36 -15 51 -26 15 -11 35 -21 43 -22 9
-1 19 -8 24 -15 4 -8 13 -10 19 -7 6 4 11 3 11 -3 0 -12 60 -46 60 -34 0 5 4
3 8 -3 9 -14 92 -57 92 -47 0 4 7 -2 15 -13 8 -10 15 -15 15 -10 0 5 10 1 22
-10 14 -13 19 -14 14 -4 -6 11 -4 11 6 -1 7 -9 16 -17 21 -17 4 -1 21 -9 37
-17 17 -9 30 -13 30 -10 0 4 7 -1 16 -10 9 -9 29 -19 45 -22 16 -3 29 -9 29
-14 0 -5 3 -8 8 -7 4 1 30 -9 57 -22 28 -13 52 -24 55 -25 3 -1 21 -9 40 -17
62 -28 214 -89 230 -93 8 -2 17 -4 20 -5 3 -1 8 -2 13 -1 4 0 7 -4 7 -11 0 -6
3 -8 7 -5 3 4 12 2 20 -4 7 -6 13 -8 13 -4 0 4 11 0 25 -9 13 -9 32 -18 42
-20 10 -1 26 -6 35 -10 9 -4 22 -9 30 -10 13 -3 30 -9 66 -23 9 -4 22 -8 27
-8 6 -1 23 -7 38 -13 16 -7 34 -12 42 -12 8 0 17 -5 20 -11 4 -6 13 -8 20 -5
7 2 16 2 20 -2 4 -4 10 -7 13 -8 4 0 14 -4 22 -7 8 -4 24 -8 35 -10 11 -1 25
-5 30 -9 6 -3 26 -9 45 -14 19 -4 41 -9 48 -11 6 -2 20 -5 30 -7 9 -3 17 -5
17 -6 0 -1 7 -3 15 -5 8 -2 26 -7 40 -10 14 -4 32 -8 40 -10 8 -1 22 -5 31 -9
9 -4 29 -9 45 -11 16 -2 29 -4 29 -5 0 -2 30 -9 60 -15 35 -7 66 -14 83 -19 9
-3 28 -7 42 -10 14 -3 47 -9 75 -15 27 -5 53 -7 57 -5 5 3 8 0 8 -6 0 -6 10
-11 23 -10 12 1 25 1 30 0 4 -1 16 -4 27 -5 11 -1 21 -4 23 -5 1 -1 16 -4 32
-6 64 -8 91 -12 105 -17 8 -3 22 -5 30 -6 8 0 33 -2 55 -5 67 -9 189 -24 255
-32 41 -4 82 -8 240 -19 346 -26 982 -14 1195 21 17 3 55 7 85 10 30 2 66 6
80 8 39 6 106 16 152 21 24 3 50 8 59 11 9 2 34 7 55 9 22 2 50 7 64 10 14 3
41 8 60 11 19 3 43 7 52 10 10 3 30 7 45 10 16 2 39 7 53 10 14 3 36 8 50 10
14 3 54 12 90 20 36 9 75 18 87 20 12 2 33 8 45 13 13 5 26 9 31 10 4 0 8 1
10 2 1 0 9 2 17 4 13 3 75 18 120 30 8 2 15 4 15 5 0 1 8 3 17 5 19 3 85 23
108 32 8 4 19 5 24 4 4 -1 14 4 22 10 8 6 14 8 14 5 0 -4 10 -1 23 6 12 7 27
13 32 13 34 5 75 19 75 26 0 5 7 6 15 3 8 -4 15 -1 15 6 0 6 4 9 9 6 7 -5 98
25 176 59 17 7 41 16 55 20 14 4 36 14 49 22 13 8 20 10 17 4 -5 -7 -1 -9 8
-5 9 3 16 11 16 17 0 6 3 7 6 4 4 -3 16 -1 28 5 11 7 24 11 29 10 4 -1 7 2 7
8 0 5 7 7 15 4 8 -4 15 -1 15 7 0 7 3 10 6 6 3 -3 23 3 42 14 20 10 42 19 49
19 7 0 13 4 13 10 0 5 7 7 15 4 8 -4 15 -1 15 5 0 6 9 11 20 11 11 0 20 5 20
12 0 6 3 9 6 5 3 -3 29 7 57 21 29 15 54 27 57 27 15 2 206 100 208 107 2 4 8
6 12 3 5 -3 19 5 31 17 12 13 19 17 14 10 -4 -8 10 -3 31 10 22 13 65 36 97
52 31 16 57 33 57 38 0 5 4 7 9 3 6 -3 14 2 19 11 5 9 11 15 13 13 11 -6 48
14 43 23 -4 6 -2 8 4 4 6 -3 16 0 24 7 7 7 18 14 23 15 6 0 21 11 34 24 14 13
21 17 17 10 -7 -11 -4 -11 13 0 12 7 21 16 21 21 0 4 5 5 10 2 6 -3 13 1 16 9
3 9 10 14 14 11 5 -3 13 3 19 12 5 10 12 16 15 13 7 -6 216 132 216 143 0 5 4
6 9 3 5 -3 12 1 15 10 3 8 10 12 16 9 5 -3 10 -2 10 4 0 5 9 13 20 16 11 4 17
11 14 17 -4 6 -2 8 3 5 6 -4 20 1 31 11 11 9 30 24 42 32 55 38 110 84 110 92
0 5 5 6 10 3 6 -3 10 -1 10 5 0 6 4 9 9 6 5 -4 11 -3 13 2 1 4 38 35 80 69 42
33 74 64 71 67 -4 3 1 6 10 6 10 0 17 5 17 11 0 5 5 7 11 4 6 -4 13 2 16 14 3
11 9 18 14 16 4 -3 12 3 18 12 6 10 11 15 11 11 0 -5 8 0 18 10 11 9 17 21 14
26 -3 5 -1 6 4 3 6 -3 36 19 68 49 32 30 60 54 61 54 1 0 33 29 71 65 38 36
72 65 77 65 4 0 5 5 2 10 -3 6 -2 10 4 10 14 0 62 46 55 53 -3 3 3 8 14 11 23
8 73 62 65 70 -4 3 -1 6 6 6 14 0 47 30 34 30 -4 1 2 6 14 13 12 7 21 14 20
17 -1 3 20 25 45 50 26 24 44 48 42 52 -3 5 -1 7 4 6 5 -2 23 12 39 30 17 17
29 32 26 32 -2 0 7 11 21 24 15 13 26 29 26 35 0 7 5 9 10 6 6 -3 10 -2 10 3
0 4 12 22 28 39 61 70 72 84 72 95 0 6 3 8 7 5 3 -4 17 8 30 26 41 57 68 89
86 106 9 8 17 21 17 27 0 7 7 15 16 18 9 4 14 9 12 12 -3 3 7 19 23 37 16 17
29 37 29 45 0 7 5 10 10 7 6 -3 10 -2 10 4 0 5 12 23 26 40 14 17 22 31 18 31
-5 0 2 7 14 16 12 8 22 20 22 25 0 6 6 17 13 24 29 33 37 45 37 53 0 5 7 15
15 22 8 7 12 16 9 21 -3 5 0 9 5 9 10 0 56 64 60 82 0 5 11 19 22 32 12 13 20
27 20 30 -1 4 8 16 18 28 11 11 18 24 16 28 -3 5 2 11 11 14 8 3 12 10 9 16
-3 5 -2 10 3 10 10 0 58 81 54 93 -1 4 2 7 8 7 5 0 21 21 35 48 38 71 61 110
75 127 7 8 9 15 6 15 -4 0 2 13 13 29 12 16 21 34 21 39 0 6 5 12 10 14 6 2
12 13 13 25 0 12 3 20 6 18 4 -5 51 81 54 100 1 6 5 12 9 15 3 3 8 12 10 20 2
8 9 21 16 28 7 8 10 18 7 23 -4 5 -1 9 5 9 6 0 8 4 5 10 -3 5 -2 10 2 10 5 0
18 21 30 47 11 27 29 66 39 88 10 22 17 43 16 48 -1 4 2 7 8 7 5 0 10 5 10 10
0 6 9 29 20 53 10 23 20 49 22 57 2 8 5 17 9 20 6 6 50 109 53 125 2 5 10 28
20 50 10 22 19 47 21 55 2 8 4 17 5 20 1 3 2 8 1 12 0 5 4 8 10 8 6 0 9 6 6
14 -3 7 -2 17 3 22 14 15 50 116 44 126 -3 4 -1 8 4 8 6 0 44 105 47 130 0 3
4 11 8 17 5 7 5 17 2 23 -3 6 -2 10 3 10 6 0 13 17 18 38 8 41 8 39 18 67 4
11 12 32 18 47 5 15 7 32 3 37 -3 6 -1 11 6 11 7 0 9 3 6 7 -4 3 -2 12 4 20 6
7 9 13 6 13 -3 0 1 20 8 44 8 24 11 47 8 50 -4 3 -2 6 3 6 8 0 14 22 17 68 0
6 4 12 9 12 4 0 7 3 6 8 -2 10 11 75 36 177 8 33 13 62 11 64 -3 2 0 11 4 20
5 9 11 34 15 56 3 22 9 54 12 70 4 17 7 42 8 58 0 15 3 27 6 27 3 0 6 8 7 18
1 15 4 35 18 132 2 14 7 43 10 65 4 22 8 56 10 75 2 19 7 58 10 85 53 416 61
1019 20 1445 -2 19 -6 67 -10 105 -3 39 -8 81 -11 95 -3 14 -7 50 -10 81 -5
57 -11 94 -14 94 -1 0 -3 14 -5 30 -1 17 -3 30 -5 30 -1 0 -4 16 -6 35 -5 50
-12 95 -14 95 -1 0 -3 9 -5 20 -2 11 -6 35 -9 53 -3 17 -8 44 -11 60 -2 15 -7
38 -10 52 -3 14 -8 34 -10 45 -8 41 -16 81 -25 115 -10 37 -19 82 -25 115 -2
11 -8 33 -14 48 -6 16 -9 33 -5 38 3 5 0 9 -6 9 -6 0 -8 5 -5 10 3 6 3 16 -2
23 -4 6 -9 22 -11 35 -1 12 -8 35 -14 50 -6 15 -10 31 -9 35 0 4 -4 17 -10 29
-6 11 -12 30 -14 42 -6 38 -13 64 -24 84 -6 11 -7 22 -4 26 3 3 2 6 -4 6 -5 0
-10 6 -11 13 -1 24 -12 60 -42 145 -18 48 -33 92 -34 97 -3 11 -14 40 -26 70
-34 86 -50 129 -50 138 0 6 -8 19 -17 30 -13 15 -14 18 -3 12 11 -6 10 -3 -3
12 -9 11 -14 23 -10 26 3 4 1 7 -6 7 -7 0 -10 4 -6 9 3 5 1 12 -5 16 -6 4 -8
10 -5 15 3 5 0 14 -7 22 -7 7 -15 22 -16 33 -2 11 -8 22 -13 23 -5 2 -7 8 -3
13 3 5 0 9 -7 9 -7 0 -10 3 -7 6 6 5 -25 80 -47 114 -5 8 -10 20 -11 25 -2 21
-37 95 -46 95 -4 0 -8 5 -8 12 0 19 -43 108 -52 108 -4 0 -8 9 -8 19 0 11 -12
34 -27 52 -16 18 -21 30 -13 25 9 -4 8 -2 -2 7 -10 8 -14 17 -10 21 4 4 0 13
-8 19 -8 7 -16 18 -18 26 -2 8 -11 26 -20 40 -10 14 -24 40 -32 56 -8 17 -17
32 -20 35 -6 6 -24 37 -54 93 -11 20 -24 37 -28 37 -5 0 -6 5 -3 10 3 6 1 10
-5 10 -6 0 -9 4 -5 9 3 6 -3 14 -12 20 -10 6 -14 11 -10 11 8 0 -50 91 -66
101 -5 3 -8 9 -8 13 1 10 -60 106 -68 106 -4 0 -8 6 -8 13 0 16 -44 77 -55 77
-5 0 -6 5 -3 10 3 6 1 10 -4 10 -6 0 -11 6 -11 14 0 8 -9 21 -20 29 -11 8 -17
17 -13 20 3 4 1 7 -5 7 -7 0 -12 7 -12 15 0 8 -4 15 -9 15 -5 0 -12 8 -16 19
-3 10 -16 30 -29 44 -13 14 -34 40 -47 59 -13 18 -26 35 -29 38 -4 3 -9 13
-13 23 -4 10 -12 15 -17 12 -6 -4 -10 -3 -9 2 4 15 -13 43 -22 37 -5 -3 -9 1
-9 9 0 7 -17 32 -38 55 -22 23 -37 44 -35 46 2 2 -8 13 -23 25 -15 11 -23 21
-19 21 4 0 -4 11 -19 25 -14 13 -26 27 -26 31 0 3 -13 18 -30 34 -16 15 -26
30 -23 34 3 3 -2 6 -12 6 -10 0 -16 3 -13 6 3 3 -11 23 -33 45 -21 21 -43 48
-49 59 -6 11 -15 18 -21 15 -5 -4 -9 -2 -9 3 0 12 -25 40 -125 142 -141 144
-232 230 -243 230 -6 0 -14 5 -18 12 -5 7 -2 9 7 4 8 -4 3 2 -11 14 -14 11
-36 31 -49 43 -13 12 -28 21 -33 20 -4 -2 -7 0 -5 5 3 12 -79 82 -88 74 -5 -4
-5 -1 -1 6 5 9 1 15 -12 19 -11 3 -23 11 -26 19 -3 8 -13 14 -21 14 -9 0 -13
5 -10 10 3 6 3 10 -2 10 -4 0 -23 14 -40 31 -18 16 -33 28 -33 25 0 -2 -14 9
-31 25 -17 16 -58 49 -92 74 -34 25 -69 51 -77 58 -8 7 -37 29 -65 48 -27 19
-61 44 -75 57 -14 12 -33 25 -42 28 -10 3 -18 10 -18 15 0 5 -7 9 -15 9 -8 0
-15 5 -15 10 0 6 -7 10 -15 10 -8 0 -15 5 -15 10 0 6 -7 10 -15 10 -8 0 -15 5
-15 10 0 6 -6 10 -14 10 -8 0 -17 7 -20 16 -3 8 -10 12 -16 9 -5 -3 -10 -1
-10 4 0 6 -6 11 -14 11 -8 0 -16 7 -20 15 -3 9 -12 12 -22 8 -12 -4 -15 -3
-10 5 4 7 1 12 -8 12 -9 0 -16 5 -16 10 0 6 -7 10 -15 10 -8 0 -15 5 -15 10 0
6 -5 10 -12 10 -6 0 -26 11 -45 26 -18 14 -33 21 -33 17 0 -4 -4 -3 -8 2 -4 6
-16 17 -26 25 -18 13 -19 13 -11 0 5 -8 -4 -3 -19 12 -16 15 -32 25 -37 22 -5
-3 -9 0 -9 5 0 6 -5 11 -11 11 -6 0 -24 9 -40 21 -16 11 -29 17 -29 12 0 -4
-5 -1 -10 7 -5 8 -13 15 -17 15 -4 0 -20 8 -35 18 -75 46 -81 49 -73 36 4 -8
-2 -4 -14 9 -12 12 -26 20 -31 17 -4 -3 -10 -2 -12 3 -5 14 -98 63 -107 58 -5
-3 -12 1 -15 10 -4 9 -9 14 -13 11 -3 -4 -25 5 -48 18 -23 14 -45 22 -48 18
-4 -3 -7 -2 -7 4 0 11 -98 59 -112 55 -5 -1 -8 3 -8 8 0 6 -9 10 -20 10 -11 0
-20 5 -20 11 0 6 -6 9 -14 6 -7 -3 -19 0 -25 6 -7 7 -15 12 -19 13 -4 0 -20 7
-37 14 -16 7 -32 14 -35 15 -3 0 -14 6 -25 12 -11 6 -29 13 -40 14 -11 2 -26
10 -34 17 -7 7 -19 11 -27 8 -7 -3 -14 0 -16 5 -2 6 -10 11 -18 13 -15 3 -23
6 -105 40 -22 10 -42 17 -45 18 -3 0 -15 4 -28 9 -13 5 -29 9 -37 9 -8 0 -17
5 -20 10 -4 6 -10 8 -15 5 -5 -3 -12 0 -15 6 -4 5 -13 8 -20 5 -8 -3 -15 -2
-17 2 -5 11 -129 52 -139 46 -5 -3 -9 -1 -9 4 0 5 -15 13 -32 17 -18 4 -35 9
-38 10 -19 7 -121 36 -136 39 -11 3 -31 9 -46 15 -16 6 -28 9 -28 6 0 -2 -18
2 -40 10 -22 8 -40 12 -40 8 0 -3 -6 -1 -12 4 -7 6 -20 11 -28 11 -18 1 -39 7
-62 16 -9 4 -22 5 -28 1 -5 -3 -10 -2 -10 4 0 5 -8 10 -17 9 -17 0 -27 2 -93
18 -52 12 -116 25 -142 29 -15 2 -35 6 -45 9 -10 3 -34 8 -53 11 -19 3 -42 8
-50 10 -8 2 -35 6 -60 9 -25 3 -56 8 -70 11 -22 4 -66 11 -130 21 -14 2 -50 6
-80 9 -60 7 -128 14 -175 20 -16 2 -61 7 -100 11 -93 11 -1115 17 -1115 7z
m957 -745 c35 -2 63 -5 63 -8 0 -3 21 -6 48 -7 65 -3 157 -10 157 -13 0 -1 18
-4 40 -6 37 -3 107 -11 165 -18 14 -2 25 -4 25 -6 0 -1 11 -3 25 -5 82 -11
155 -23 155 -25 0 -1 11 -3 25 -5 38 -5 82 -13 110 -20 14 -4 43 -11 65 -15
22 -4 51 -11 65 -14 14 -3 34 -8 45 -11 34 -7 59 -14 94 -24 19 -6 38 -8 42
-5 5 3 9 0 9 -5 0 -6 3 -10 8 -9 10 3 69 -11 122 -29 37 -12 105 -32 165 -47
6 -2 17 -6 25 -9 8 -3 44 -15 80 -27 36 -11 73 -25 82 -30 10 -6 24 -10 32
-10 7 0 26 -7 42 -14 15 -8 31 -13 36 -10 4 3 8 0 8 -6 0 -6 5 -8 10 -5 6 3
10 1 10 -5 0 -6 6 -10 13 -9 6 1 19 0 27 -3 8 -4 24 -9 35 -14 11 -4 23 -6 28
-6 4 1 7 -2 7 -8 0 -6 3 -9 8 -8 4 1 17 -3 30 -10 12 -7 22 -10 22 -6 0 3 6 1
13 -5 8 -6 17 -8 20 -4 4 3 7 1 7 -6 0 -7 5 -9 10 -6 6 3 10 1 10 -4 0 -6 8
-11 18 -11 10 0 22 -4 28 -10 5 -5 19 -11 31 -13 11 -1 27 -8 35 -14 12 -10
72 -37 90 -42 4 -1 28 -12 52 -26 24 -13 46 -21 50 -18 3 4 6 1 6 -5 0 -9 30
-24 50 -25 3 0 11 -7 18 -14 8 -7 18 -11 23 -8 5 4 9 2 9 -4 0 -5 10 -13 23
-17 12 -3 30 -13 39 -21 9 -8 22 -12 29 -7 7 4 10 3 6 -2 -3 -5 19 -21 49 -34
30 -14 54 -28 54 -32 0 -5 5 -8 11 -8 6 0 31 -14 56 -30 24 -17 41 -25 38 -18
-4 7 1 4 9 -6 9 -11 16 -16 16 -10 0 5 4 4 8 -2 7 -11 69 -46 74 -42 2 1 15
-10 31 -25 15 -16 32 -25 37 -22 6 3 10 2 10 -3 0 -4 18 -20 40 -35 23 -14 38
-21 34 -14 -4 7 3 3 14 -8 38 -37 51 -45 67 -45 9 0 13 -4 10 -10 -3 -5 1 -10
9 -10 9 0 16 -5 16 -12 0 -6 3 -9 6 -6 3 3 17 -5 31 -18 14 -13 28 -22 30 -20
3 2 13 -3 22 -12 37 -35 59 -50 65 -45 3 4 6 2 6 -4 0 -5 25 -27 55 -48 30
-20 55 -42 55 -47 0 -5 4 -7 8 -4 5 3 15 -3 24 -12 19 -22 81 -70 91 -71 4 0
19 -14 33 -31 14 -16 30 -28 35 -24 5 3 9 -3 9 -12 0 -10 3 -15 6 -11 4 3 20
-9 37 -28 17 -19 36 -35 43 -35 6 0 15 -7 18 -16 3 -8 11 -12 17 -8 7 4 9 3 6
-3 -3 -5 10 -22 30 -39 19 -16 44 -37 56 -46 11 -10 24 -18 29 -18 5 0 7 -4 3
-10 -3 -5 6 -15 19 -22 14 -7 25 -16 25 -20 1 -5 3 -8 5 -9 6 0 210 -207 231
-234 9 -11 13 -14 9 -6 -5 9 -3 12 4 7 7 -4 12 -13 12 -20 0 -7 10 -21 23 -32
21 -19 88 -94 174 -194 21 -24 47 -53 58 -65 11 -11 22 -25 25 -30 3 -6 9 -9
13 -7 5 1 6 -1 4 -6 -3 -4 4 -19 15 -32 11 -14 16 -19 12 -11 -5 9 -3 12 5 7
6 -4 9 -11 7 -15 -3 -3 9 -22 25 -40 16 -19 29 -38 29 -43 0 -5 5 -6 10 -3 6
4 9 2 8 -3 -3 -9 25 -53 55 -84 9 -10 17 -22 17 -28 0 -5 8 -14 18 -19 9 -6
13 -11 8 -11 -5 0 1 -9 13 -19 12 -11 22 -22 21 -26 -1 -4 7 -18 19 -31 12
-13 21 -29 21 -34 0 -6 7 -13 15 -16 8 -4 12 -10 9 -15 -3 -5 2 -12 10 -15 9
-3 14 -9 11 -14 -2 -4 3 -16 13 -26 9 -10 24 -32 32 -47 8 -16 24 -40 37 -53
12 -14 23 -25 23 -27 8 -35 14 -46 21 -41 5 3 9 -4 9 -15 0 -12 5 -21 10 -21
6 0 10 -7 10 -15 0 -8 5 -15 11 -15 5 0 7 -5 4 -10 -3 -6 1 -13 9 -16 9 -3 14
-10 11 -14 -3 -4 3 -18 13 -31 10 -13 23 -36 30 -51 6 -16 16 -28 22 -28 6 0
9 -4 5 -9 -3 -5 1 -15 8 -23 7 -7 13 -16 13 -20 -1 -4 6 -15 14 -25 8 -10 17
-27 18 -38 2 -11 9 -23 15 -27 6 -3 12 -14 13 -24 2 -9 8 -20 14 -24 7 -4 11
-10 11 -14 -1 -8 76 -170 86 -180 5 -4 8 -11 8 -14 2 -20 18 -52 26 -52 6 0 8
-4 5 -8 -2 -4 11 -41 30 -81 19 -40 37 -84 40 -97 3 -13 10 -24 16 -24 5 0 7
-4 3 -9 -3 -5 -1 -12 5 -16 6 -4 8 -11 5 -16 -4 -5 -1 -9 4 -9 6 0 10 -3 10
-7 -1 -5 0 -10 1 -13 1 -3 3 -12 5 -20 6 -24 29 -85 35 -90 3 -3 17 -39 30
-80 13 -41 28 -78 33 -81 5 -4 6 -12 3 -18 -4 -6 -2 -11 4 -11 6 0 8 -5 5 -10
-4 -6 -3 -16 2 -23 8 -10 28 -69 39 -109 1 -5 3 -10 4 -13 1 -3 4 -9 5 -15 1
-5 3 -11 5 -12 3 -4 10 -34 17 -68 3 -16 10 -30 15 -30 5 0 6 -4 3 -10 -3 -5
-3 -16 1 -22 5 -7 9 -19 10 -28 3 -17 5 -26 23 -90 7 -25 15 -53 17 -62 2 -10
6 -26 8 -36 2 -9 9 -37 16 -62 7 -25 14 -54 15 -65 1 -11 3 -20 4 -20 1 0 4
-13 6 -30 2 -16 7 -41 11 -55 7 -24 8 -33 18 -90 2 -14 7 -36 10 -50 4 -14 8
-38 10 -55 3 -16 7 -43 10 -60 2 -16 7 -50 11 -75 4 -25 8 -56 10 -70 3 -14 7
-47 10 -75 4 -27 8 -63 10 -80 11 -85 19 -182 31 -390 8 -137 8 -464 0 -610
-4 -60 -8 -141 -10 -180 -2 -38 -5 -70 -6 -70 -1 0 -4 -18 -5 -40 -3 -35 -9
-93 -19 -175 -2 -14 -6 -50 -10 -80 -3 -30 -8 -66 -11 -80 -2 -13 -7 -40 -10
-60 -5 -36 -10 -61 -22 -115 -3 -16 -6 -42 -7 -57 0 -16 -3 -28 -6 -28 -3 0
-6 -10 -7 -22 -1 -13 -4 -34 -7 -48 -3 -14 -9 -38 -12 -55 -3 -16 -14 -66 -25
-110 -12 -44 -23 -88 -24 -98 -2 -10 -14 -52 -25 -95 -12 -42 -23 -84 -25 -92
-2 -8 -8 -27 -14 -42 -6 -16 -8 -28 -5 -28 2 0 0 -9 -6 -21 -6 -11 -13 -28
-15 -37 -2 -9 -22 -71 -45 -137 -23 -66 -43 -128 -43 -137 -1 -10 -4 -18 -8
-18 -6 0 -17 -33 -20 -57 -1 -5 -10 -25 -20 -45 -10 -21 -20 -45 -22 -55 -2
-10 -11 -34 -20 -53 -21 -48 -30 -74 -29 -82 1 -5 -2 -8 -7 -8 -8 0 -20 -33
-22 -57 0 -5 -7 -16 -16 -25 -8 -9 -12 -22 -7 -29 5 -8 3 -10 -6 -4 -10 6 -12
4 -7 -8 3 -9 2 -19 -4 -22 -9 -6 -43 -79 -37 -81 2 -1 -6 -12 -17 -25 -13 -14
-14 -20 -5 -15 12 6 12 5 0 -6 -16 -13 -44 -71 -40 -84 1 -4 -3 -10 -8 -13
-12 -8 -57 -93 -54 -103 1 -5 -2 -8 -7 -8 -9 0 -24 -33 -26 -53 0 -4 -5 -11
-11 -15 -9 -6 -16 -18 -25 -47 -1 -5 -9 -16 -16 -23 -7 -8 -10 -18 -7 -24 4
-7 2 -8 -4 -4 -11 6 -14 0 -11 -20 0 -4 -3 -10 -9 -13 -5 -3 -22 -28 -37 -56
-16 -27 -40 -65 -53 -82 -13 -18 -20 -33 -16 -33 5 0 0 -7 -10 -15 -11 -8 -16
-15 -12 -15 4 0 0 -7 -8 -16 -9 -8 -14 -20 -11 -25 4 -5 2 -9 -3 -9 -5 0 -21
-18 -36 -40 -14 -22 -23 -40 -19 -40 4 0 -2 -6 -13 -14 -10 -8 -19 -18 -19
-23 0 -4 -8 -17 -18 -28 -9 -11 -18 -24 -20 -30 -1 -5 -12 -20 -24 -33 -13
-14 -20 -29 -16 -35 3 -5 1 -7 -4 -4 -11 7 -28 -20 -24 -36 1 -5 -3 -6 -8 -3
-7 5 -24 -20 -22 -31 0 -2 -17 -22 -39 -45 -22 -24 -40 -46 -40 -50 0 -4 -31
-45 -69 -91 -38 -47 -67 -87 -65 -90 3 -3 0 -8 -7 -13 -8 -5 -10 -3 -4 7 4 8
-4 1 -18 -16 -14 -16 -23 -34 -20 -39 4 -5 1 -6 -6 -2 -8 5 -14 0 -18 -13 -3
-12 -9 -21 -14 -21 -5 0 -18 -15 -29 -32 -11 -18 -20 -29 -20 -25 0 5 -12 -6
-27 -24 -16 -19 -44 -50 -63 -70 -93 -96 -144 -155 -142 -162 1 -4 -4 -6 -10
-5 -7 2 -12 -3 -10 -10 1 -6 -4 -11 -10 -10 -7 2 -12 -3 -10 -10 1 -6 -3 -12
-8 -12 -9 0 -83 -66 -182 -162 -21 -21 -43 -38 -49 -38 -5 0 -7 -4 -4 -10 3
-5 -1 -10 -9 -10 -9 0 -16 -6 -16 -14 0 -8 -5 -18 -12 -22 -7 -5 -8 -2 -3 7 4
8 -4 2 -19 -13 -15 -16 -31 -28 -36 -28 -5 0 -12 -9 -15 -20 -4 -11 -10 -18
-15 -15 -5 3 -16 -5 -24 -17 -9 -12 -16 -19 -16 -15 0 4 -12 -4 -27 -18 -15
-14 -31 -25 -36 -25 -4 0 -5 -4 -2 -10 3 -5 0 -10 -7 -10 -7 0 -25 -10 -40
-23 -14 -12 -41 -33 -59 -47 -18 -14 -44 -36 -57 -50 -14 -14 -22 -19 -17 -11
5 9 -2 7 -17 -5 -14 -10 -24 -22 -21 -26 2 -5 -2 -8 -10 -8 -8 0 -26 -11 -41
-25 -14 -13 -29 -25 -31 -25 -18 -2 -34 -14 -29 -21 3 -5 2 -8 -3 -7 -14 4
-73 -38 -65 -46 4 -4 3 -7 -3 -6 -21 5 -36 0 -30 -10 4 -6 3 -9 -2 -8 -13 4
-56 -22 -76 -46 -10 -11 -16 -15 -12 -7 5 9 -1 8 -19 -4 -14 -10 -26 -22 -26
-27 0 -5 -5 -6 -10 -3 -6 3 -13 -1 -16 -9 -3 -9 -9 -14 -14 -11 -4 2 -17 -5
-28 -16 -12 -11 -22 -17 -22 -14 0 4 -12 -3 -26 -14 -15 -12 -32 -21 -39 -21
-7 0 -25 -12 -40 -28 -16 -15 -25 -20 -21 -12 7 13 6 13 -6 0 -7 -8 -20 -16
-28 -18 -8 -2 -21 -10 -27 -19 -7 -9 -13 -14 -13 -10 0 3 -28 -10 -62 -29 -35
-19 -71 -38 -80 -41 -10 -3 -18 -10 -18 -15 0 -5 -4 -6 -10 -3 -5 3 -10 1 -10
-4 0 -6 -3 -11 -7 -10 -15 2 -53 -13 -53 -21 0 -4 -11 -11 -25 -14 -14 -4 -25
-11 -25 -17 0 -6 -4 -8 -8 -5 -5 3 -52 -17 -105 -43 -52 -27 -98 -46 -101 -43
-3 3 -6 0 -6 -7 0 -7 -4 -9 -10 -6 -5 3 -10 1 -10 -5 0 -6 -4 -9 -8 -6 -5 3
-30 -6 -58 -18 -106 -50 -278 -119 -327 -132 -15 -3 -27 -10 -27 -15 0 -5 -7
-6 -15 -3 -8 4 -15 1 -15 -5 0 -6 -6 -8 -14 -5 -8 3 -17 1 -21 -5 -3 -6 -17
-11 -31 -11 -13 0 -24 -5 -24 -12 0 -6 -3 -9 -6 -5 -4 3 -22 0 -40 -8 -19 -8
-34 -12 -34 -10 0 2 -20 -4 -45 -15 -25 -11 -45 -17 -45 -15 0 3 -16 -1 -35
-9 -19 -8 -35 -13 -35 -10 0 3 -6 2 -13 -3 -6 -4 -21 -9 -32 -10 -11 -2 -32
-8 -46 -14 -14 -5 -35 -11 -47 -12 -12 -1 -22 -4 -22 -7 0 -3 -8 -6 -17 -7
-19 -1 -39 -5 -96 -21 -20 -6 -38 -7 -41 -4 -3 3 -6 1 -6 -4 0 -6 -10 -10 -22
-11 -25 -1 -75 -11 -97 -19 -8 -2 -30 -7 -50 -10 -20 -3 -43 -7 -51 -10 -8 -3
-28 -8 -45 -10 -16 -2 -41 -6 -55 -10 -14 -3 -38 -7 -55 -9 -16 -1 -30 -4 -30
-5 0 -2 -23 -6 -90 -14 -27 -3 -60 -8 -72 -10 -22 -5 -109 -15 -173 -21 -19
-2 -60 -6 -90 -9 -295 -32 -741 -36 -1055 -11 -141 12 -230 21 -305 31 -25 3
-63 8 -85 11 -46 5 -77 10 -120 17 -16 3 -46 8 -65 11 -19 3 -48 8 -65 10 -16
2 -30 5 -30 6 0 1 -8 3 -65 13 -33 6 -62 12 -139 31 -35 8 -76 17 -90 19 -14
2 -33 6 -41 10 -8 3 -26 8 -40 10 -14 3 -27 6 -30 7 -3 1 -9 3 -15 4 -5 1 -30
7 -55 14 -25 8 -50 14 -57 15 -7 1 -16 5 -19 9 -4 4 -17 7 -29 7 -12 0 -25 3
-29 7 -3 4 -12 8 -19 9 -32 6 -54 12 -72 18 -11 5 -37 14 -57 22 -21 8 -38 11
-38 8 0 -4 -6 -1 -13 5 -8 6 -22 12 -33 14 -10 2 -26 7 -34 10 -170 64 -237
89 -245 91 -5 2 -26 9 -45 17 -19 7 -38 12 -42 11 -5 -1 -8 2 -8 8 0 6 -3 9
-7 8 -10 -2 -56 17 -105 42 -21 11 -38 18 -38 15 0 -3 -20 7 -45 21 -25 13
-45 22 -45 18 0 -4 -8 0 -17 8 -19 16 -62 33 -75 30 -5 -1 -8 2 -8 7 0 9 -44
28 -46 20 0 -2 -8 4 -18 14 -10 9 -22 15 -27 12 -5 -4 -9 -2 -9 3 0 6 -17 17
-38 26 -20 8 -70 33 -109 55 -40 22 -73 37 -73 33 0 -4 -5 1 -11 10 -5 10 -15
18 -20 18 -6 0 -22 9 -36 20 -14 11 -29 17 -34 14 -5 -3 -9 -1 -9 3 0 5 -9 14
-21 21 -17 11 -20 11 -14 0 4 -7 1 -6 -7 2 -15 18 -68 53 -68 45 0 -3 -9 4
-20 15 -12 12 -26 18 -32 14 -6 -4 -8 -3 -4 4 3 6 -4 14 -16 18 -13 4 -25 9
-28 13 -11 13 -70 51 -80 51 -5 0 -10 5 -10 11 0 5 -4 8 -9 5 -5 -3 -11 1 -15
9 -3 8 -12 15 -21 15 -8 0 -15 5 -15 10 0 6 -7 10 -15 10 -8 0 -15 4 -15 8 0
9 -64 49 -66 42 -1 -3 -11 6 -23 20 -11 14 -20 22 -21 18 0 -4 -10 3 -23 15
-38 36 -67 57 -67 49 0 -4 -4 -2 -8 4 -8 14 -102 86 -102 79 0 -2 -13 8 -29
23 -58 54 -91 82 -98 82 -3 0 -12 8 -20 18 -8 9 -11 11 -7 3 5 -9 3 -12 -4 -7
-7 4 -12 14 -12 22 0 8 -4 14 -9 14 -4 0 -32 22 -62 49 -30 27 -57 47 -61 45
-3 -2 -9 5 -13 16 -3 11 -10 20 -14 20 -4 0 -22 15 -41 34 -19 19 -38 32 -43
29 -4 -2 -6 1 -5 8 2 7 -2 13 -9 14 -6 0 -15 4 -20 9 -5 6 -2 6 7 1 10 -5 8
-1 -4 13 -11 12 -26 22 -34 22 -9 0 -13 3 -10 6 6 5 -26 44 -36 44 -6 0 -66
60 -66 66 0 3 -9 14 -20 26 -11 12 -20 18 -20 13 0 -4 -14 11 -30 33 -17 23
-37 42 -46 42 -8 0 -13 4 -10 8 3 5 -5 18 -17 29 -12 11 -28 29 -36 41 -8 11
-18 19 -23 16 -4 -3 -8 2 -8 10 0 8 -10 22 -22 30 -12 9 -18 16 -13 16 6 1 0
6 -12 13 -12 7 -23 17 -25 22 -2 6 -7 9 -11 7 -5 -1 -6 1 -3 6 3 5 -15 30 -39
57 -25 27 -45 50 -45 52 0 4 -31 41 -62 74 -15 16 -24 29 -20 29 4 0 -1 5 -11
11 -9 6 -15 14 -12 20 4 5 2 9 -4 9 -5 0 -18 13 -27 29 -10 17 -21 28 -26 25
-5 -3 -8 -2 -7 3 3 20 -2 34 -11 28 -5 -3 -10 -1 -10 5 0 12 -46 77 -70 98
-13 12 -13 13 0 7 8 -4 4 3 -9 14 -13 12 -19 21 -15 21 5 0 5 4 -1 8 -5 4 -26
31 -45 59 -19 29 -39 53 -43 53 -5 0 -5 5 -2 10 3 6 1 10 -4 10 -6 0 -11 7
-11 15 0 8 -5 15 -11 15 -5 0 -7 5 -4 10 3 6 1 10 -4 10 -6 0 -11 7 -11 15 0
8 -4 15 -8 15 -5 0 -21 23 -36 50 -15 28 -31 50 -37 50 -5 0 -8 3 -7 8 5 17
-14 52 -25 46 -7 -4 -9 -4 -5 0 4 5 -4 26 -18 47 -13 21 -24 42 -24 45 0 4 -8
13 -18 21 -10 9 -11 11 -2 7 11 -6 10 -2 -3 13 -9 11 -17 25 -17 32 0 6 -6 14
-14 17 -8 3 -12 12 -9 20 3 8 1 14 -3 14 -5 0 -20 25 -34 55 -14 30 -28 55
-32 55 -5 0 -8 5 -8 12 0 6 -8 20 -18 31 -12 15 -13 19 -2 13 9 -5 8 -2 -2 7
-10 8 -14 17 -10 21 4 4 -1 12 -10 17 -11 6 -15 16 -11 26 4 11 3 14 -5 9 -8
-5 -10 -2 -6 8 3 9 2 16 -3 16 -6 0 -15 18 -22 40 -6 22 -16 40 -21 40 -6 0
-10 8 -10 18 0 10 -3 22 -7 26 -5 4 -8 11 -9 14 -1 14 -28 68 -43 86 -12 15
-13 17 -2 11 11 -6 10 -2 -2 16 -9 13 -17 31 -17 40 0 9 -7 22 -15 29 -8 7
-12 16 -9 21 3 5 0 9 -6 9 -6 0 -9 4 -6 8 3 5 -1 20 -9 35 -8 15 -11 27 -8 27
3 0 0 7 -7 15 -7 8 -9 15 -4 15 5 0 4 4 -1 8 -6 4 -19 32 -29 62 -10 30 -23
61 -29 67 -5 7 -7 13 -3 13 4 0 0 13 -8 29 -9 16 -12 31 -9 35 4 3 1 6 -6 6
-7 0 -10 4 -7 9 3 4 -5 36 -18 70 -14 33 -22 61 -19 61 3 0 0 7 -7 15 -7 8 -9
15 -5 15 4 0 2 7 -5 15 -7 8 -10 15 -7 15 3 0 -3 25 -13 55 -10 30 -16 55 -13
55 3 0 0 7 -7 15 -7 8 -9 15 -6 15 4 0 2 8 -3 18 -6 11 -12 30 -15 43 -3 13
-8 35 -11 49 -4 14 -7 31 -7 38 -1 6 -4 12 -8 12 -3 0 -6 8 -6 18 -2 23 -14
84 -19 92 -3 4 -7 25 -10 46 -3 22 -8 46 -11 54 -3 8 -8 25 -10 38 -6 31 -14
73 -20 102 -3 14 -7 34 -9 45 -2 11 -7 36 -10 55 -3 19 -8 47 -11 63 -2 15 -6
39 -8 55 -5 26 -13 83 -22 147 -5 39 -13 118 -18 175 -3 25 -5 45 -6 45 -1 0
-3 20 -5 45 -1 25 -6 86 -10 135 -16 179 -9 766 10 955 2 25 7 74 10 110 3 36
7 76 9 90 2 14 7 50 11 80 4 30 9 64 11 75 1 11 5 34 8 50 3 17 8 50 12 75 4
25 8 55 8 68 1 12 3 22 6 22 3 0 6 8 7 18 1 20 11 87 13 87 3 0 11 39 15 70 2
17 5 31 6 33 1 1 2 5 3 10 1 4 8 31 15 61 8 30 15 62 16 70 1 9 4 23 8 31 4 8
9 26 11 40 3 14 5 25 6 25 2 0 7 21 12 50 2 11 7 26 12 33 4 7 5 16 2 19 -3 3
-1 12 6 20 6 7 8 16 5 19 -3 3 1 17 8 31 7 14 11 32 8 39 -3 8 -1 14 5 14 8 0
17 28 22 65 1 3 8 24 16 47 9 24 17 48 18 53 2 6 6 17 9 25 7 18 30 92 33 103
1 4 3 10 4 15 1 4 2 10 1 15 0 4 3 7 9 7 6 0 9 3 8 8 0 4 3 16 7 27 34 82 62
165 57 165 -4 0 -2 4 5 8 6 4 13 16 15 27 1 11 7 23 11 26 5 3 9 12 11 20 1 8
7 24 14 35 6 12 8 24 5 28 -3 3 -1 6 5 6 7 0 11 3 10 8 -1 4 9 30 21 57 12 28
23 55 24 60 1 6 5 12 8 15 7 7 49 94 49 104 0 4 7 14 15 23 8 8 13 19 10 24
-4 5 -2 9 3 9 10 0 36 58 33 73 0 4 3 7 8 7 9 0 20 23 21 45 1 6 10 19 21 31
10 11 16 24 12 27 -3 4 0 7 7 7 7 0 10 3 7 6 -4 4 2 19 13 34 10 14 20 33 22
41 2 8 8 18 15 24 7 5 13 17 15 25 2 8 11 23 20 34 10 10 15 23 12 28 -3 4 -1
8 4 8 6 0 27 30 47 68 21 37 42 70 49 74 6 4 7 8 3 8 -5 0 -1 7 7 16 9 8 13
20 10 26 -4 7 -2 8 4 4 7 -4 12 -2 12 3 0 20 3 26 19 38 9 7 13 13 9 13 -4 0
6 15 23 32 16 18 29 36 29 41 0 5 7 15 15 24 8 8 12 19 9 25 -4 6 -2 8 4 4 6
-3 13 3 17 14 3 11 11 20 16 20 5 0 9 6 9 13 1 6 14 27 30 46 16 19 26 39 23
44 -3 6 -1 7 4 4 11 -7 28 20 24 36 -1 5 3 6 8 3 5 -3 11 0 14 7 3 7 32 47 65
89 33 42 58 79 54 84 -4 4 -1 4 6 0 7 -4 12 -1 12 9 0 9 5 13 10 10 9 -6 14 8
11 28 -1 5 3 6 9 2 5 -3 10 -3 10 2 0 4 22 33 49 62 28 30 47 59 44 64 -3 6
-1 7 5 3 6 -3 13 3 17 14 4 11 11 18 16 15 5 -4 9 0 9 8 0 8 7 17 15 21 8 3
15 13 15 21 0 9 3 14 8 12 4 -3 16 7 27 20 11 14 81 86 155 162 74 75 134 141
135 146 0 6 5 10 11 10 15 0 94 72 86 79 -3 3 1 6 10 6 8 0 31 18 51 41 21 22
37 37 37 34 0 -4 19 11 41 34 23 22 46 41 51 41 5 0 6 5 2 12 -4 6 -3 8 3 5 5
-3 30 14 56 38 26 24 47 41 47 38 0 -3 9 4 20 17 11 13 20 20 20 17 0 -3 12 5
26 18 15 14 31 25 36 25 5 0 6 5 2 12 -4 6 -3 8 3 5 6 -4 25 6 42 22 16 15 32
26 35 24 2 -3 9 5 16 16 6 12 15 19 20 16 5 -3 15 3 22 13 7 11 16 19 19 18 7
-1 62 39 84 61 7 7 15 10 18 7 2 -3 19 10 38 28 18 18 29 26 24 18 -9 -16 29
13 53 40 12 13 13 13 6 0 -7 -13 -6 -13 12 0 10 8 23 21 27 28 5 7 12 10 16 7
5 -2 20 6 35 20 14 13 26 22 26 19 0 -3 12 4 26 15 15 12 32 21 39 21 6 0 20
9 30 20 9 10 20 18 24 17 8 -2 63 34 73 48 4 5 8 6 8 1 0 -5 9 -1 20 9 11 10
20 14 20 9 0 -5 4 -4 8 1 8 12 80 54 105 62 9 3 17 9 17 14 0 5 7 6 15 3 8 -4
15 -2 15 3 0 8 67 46 80 45 3 -1 16 9 29 21 13 12 20 15 16 7 -6 -11 -3 -10
12 3 11 9 23 14 26 10 4 -3 7 -1 7 6 0 7 5 9 10 6 6 -3 10 -1 10 5 0 6 5 8 10
5 6 -3 10 -1 10 4 0 6 3 11 8 10 16 -2 52 14 52 24 0 6 3 8 6 4 3 -3 23 3 42
14 20 10 42 19 49 19 7 0 13 4 13 8 0 5 6 9 13 9 6 0 33 10 60 21 26 12 51 22
55 23 4 0 16 6 27 12 11 6 22 12 25 13 6 1 36 13 80 32 19 8 41 14 48 13 6 -1
12 3 12 9 0 6 4 9 9 5 5 -3 12 -1 16 5 4 6 10 8 15 5 5 -3 11 -1 15 5 3 5 14
10 23 10 9 0 30 7 46 15 15 8 37 15 47 15 11 0 19 4 19 8 0 5 6 9 13 10 6 0
19 3 27 5 8 2 29 7 45 12 17 4 36 12 43 18 6 5 12 6 12 2 0 -4 7 -1 17 6 9 8
18 13 20 11 4 -4 65 8 78 16 6 4 15 7 20 8 6 1 37 10 70 19 33 9 67 18 75 20
8 2 60 15 115 29 55 15 118 29 140 32 21 3 43 8 47 10 5 3 23 8 41 10 38 5 72
12 72 14 0 1 9 3 20 4 11 2 40 7 65 11 25 4 54 9 65 10 19 3 43 7 115 21 19 3
51 7 70 9 19 1 35 3 35 4 0 2 20 4 45 6 113 11 145 14 145 15 0 2 18 3 174 14
46 3 85 7 88 9 4 4 669 -1 780 -5z"/>
<path d="M7080 12773 c-8 -3 -22 -7 -30 -10 -19 -8 -27 -10 -40 -12 -12 -1
-74 -61 -63 -61 4 0 -2 -7 -14 -15 -14 -10 -20 -21 -16 -32 5 -12 3 -14 -7 -8
-10 6 -12 4 -7 -8 3 -9 2 -19 -3 -22 -5 -3 -9 -13 -9 -23 1 -9 0 -318 0 -687
0 -368 1 -681 4 -695 3 -14 14 -38 26 -54 12 -16 15 -25 8 -21 -8 5 -5 -2 6
-15 26 -30 106 -81 116 -74 5 3 9 1 9 -4 0 -7 55 -9 127 -4 12 1 29 9 37 18 9
8 16 13 16 9 0 -3 16 6 35 21 20 15 33 29 30 32 -2 3 2 10 11 16 8 6 16 18 18
26 2 8 7 24 12 35 11 24 11 1374 0 1425 -8 37 -77 127 -95 123 -6 -2 -11 1
-11 6 0 20 -121 45 -160 34z"/>
<path d="M5206 12443 c-4 -4 -14 -8 -22 -9 -9 -1 -23 -6 -32 -10 -9 -4 -21 -8
-25 -8 -5 -1 -17 -12 -28 -26 -12 -14 -18 -18 -14 -10 4 8 -4 2 -18 -15 -14
-16 -23 -33 -20 -37 2 -5 0 -8 -6 -8 -26 0 -42 -126 -22 -180 5 -14 13 -34 17
-45 4 -11 6 -23 6 -27 -1 -5 3 -8 8 -8 6 0 9 -3 8 -7 -3 -14 13 -73 21 -73 3
0 8 -11 9 -25 1 -14 9 -37 18 -50 9 -14 13 -25 9 -25 -4 0 -2 -7 5 -15 7 -8 9
-15 5 -15 -4 0 -2 -6 4 -14 7 -8 14 -27 17 -42 3 -16 10 -34 15 -40 5 -7 11
-20 13 -30 3 -11 10 -32 17 -49 7 -16 13 -33 14 -37 2 -5 4 -10 5 -13 1 -3 3
-8 5 -12 1 -5 5 -16 9 -25 4 -9 9 -22 10 -30 1 -7 8 -23 14 -35 7 -13 11 -23
8 -23 -3 0 1 -12 9 -27 8 -15 12 -30 10 -34 -3 -4 2 -10 11 -13 8 -3 13 -10
10 -14 -6 -10 54 -85 62 -78 3 3 10 -1 16 -10 6 -8 18 -16 26 -18 8 -2 24 -7
34 -11 17 -7 69 -9 119 -4 9 1 17 7 17 12 0 6 3 8 6 4 9 -9 64 21 64 35 0 6 3
8 7 5 8 -9 74 83 68 94 -3 4 -1 10 4 13 10 7 14 104 4 120 -4 6 -9 17 -10 24
-7 30 -12 44 -44 126 -10 27 -19 55 -19 62 0 8 -5 14 -11 14 -5 0 -8 4 -5 8 2
4 -8 38 -24 74 -15 37 -25 69 -22 72 3 4 0 6 -7 6 -7 0 -10 4 -7 8 4 7 -23 86
-54 157 -5 11 -14 38 -21 60 -7 22 -16 45 -20 50 -4 6 -10 25 -14 43 -3 17
-11 32 -16 32 -6 0 -8 4 -5 9 13 20 -94 106 -144 116 -58 11 -88 14 -94 8z"/>
<path d="M8970 12440 c-7 -4 -19 -6 -27 -3 -7 3 -13 0 -13 -6 0 -6 -3 -10 -7
-9 -5 0 -17 -3 -28 -7 -22 -9 -71 -45 -62 -45 3 0 -5 -12 -18 -26 -14 -15 -22
-30 -19 -35 3 -5 0 -9 -5 -9 -6 0 -11 -3 -10 -7 1 -5 -2 -19 -7 -33 -4 -14 -6
-27 -5 -29 2 -2 -2 -7 -8 -10 -6 -4 -12 -19 -13 -34 -1 -15 -5 -27 -9 -27 -3
0 -12 -19 -19 -42 -8 -24 -28 -80 -46 -125 -18 -46 -31 -83 -29 -83 2 0 -2
-12 -10 -27 -8 -15 -12 -30 -9 -35 3 -4 1 -8 -4 -8 -9 0 -26 -55 -23 -72 0 -5
-3 -8 -8 -8 -8 0 -18 -29 -26 -70 0 -3 -6 -15 -13 -28 -7 -12 -10 -26 -7 -31
3 -5 1 -11 -5 -13 -5 -1 -11 -12 -13 -23 -1 -11 -5 -24 -8 -30 -12 -19 -2
-101 17 -141 21 -45 63 -94 81 -94 7 0 13 -4 13 -8 0 -5 18 -15 40 -22 59 -19
117 -17 180 8 33 13 102 81 95 93 -4 5 -2 9 4 9 6 0 14 12 17 28 4 15 11 32
15 38 5 6 10 19 12 30 2 10 10 35 19 55 9 20 19 47 22 60 4 13 11 33 16 44 19
45 35 91 36 100 1 6 9 28 19 50 9 22 18 45 20 50 3 14 14 44 31 82 8 17 14 36
14 42 0 6 5 20 10 31 6 11 15 29 20 40 6 12 8 25 5 30 -4 6 -2 10 2 10 26 0
39 180 13 188 -5 2 -8 8 -4 13 17 28 -100 127 -159 135 -18 2 -41 6 -53 8 -11
2 -27 1 -34 -4z"/>
<path d="M3546 11502 c-20 -8 -36 -18 -36 -24 0 -5 -4 -7 -9 -4 -17 11 -112
-126 -98 -140 3 -3 1 -20 -3 -38 -5 -21 -3 -42 5 -57 7 -12 11 -29 8 -36 -3
-7 0 -13 7 -13 6 0 8 -5 5 -10 -3 -6 1 -13 9 -16 9 -3 14 -9 12 -13 -3 -4 18
-32 45 -62 28 -29 51 -56 52 -59 1 -3 5 -4 10 -2 4 1 6 -2 5 -7 -4 -11 130
-171 143 -171 6 0 7 -5 4 -10 -3 -6 1 -13 9 -16 9 -3 16 -10 16 -16 0 -5 10
-19 23 -32 12 -13 36 -41 52 -61 17 -21 51 -63 78 -93 26 -30 47 -59 47 -64 0
-4 7 -8 15 -8 8 0 15 -5 15 -11 0 -11 61 -41 95 -46 35 -6 106 -4 118 4 7 4
18 8 25 9 8 2 20 11 29 21 8 10 11 11 8 3 -4 -8 14 7 39 35 26 27 44 55 42 62
-3 7 -2 13 3 13 16 0 19 136 3 152 -6 6 -8 16 -6 23 3 7 -4 19 -15 27 -12 8
-18 18 -14 21 3 4 1 7 -5 7 -7 0 -12 5 -12 12 0 6 -17 27 -37 46 -21 19 -31
31 -23 27 8 -4 -6 13 -31 38 -26 25 -44 48 -41 51 3 3 -3 8 -12 12 -9 3 -13
10 -10 15 3 5 -2 9 -11 9 -9 0 -14 4 -11 9 4 5 -6 19 -21 31 -16 12 -21 18
-13 14 8 -4 -4 11 -27 33 -23 23 -40 43 -38 45 2 2 -18 27 -44 56 -26 29 -45
52 -42 52 2 0 -13 17 -35 37 -21 20 -32 33 -24 28 8 -5 0 7 -17 25 -18 19 -33
38 -33 42 0 5 -4 6 -10 3 -5 -3 -10 -2 -10 4 0 10 -51 41 -80 49 -39 10 -123
7 -154 -6z"/>
<path d="M10537 11506 c-22 -6 -35 -14 -31 -18 4 -5 -2 -8 -14 -8 -21 0 -110
-94 -104 -111 1 -5 -5 -9 -15 -9 -9 0 -14 -3 -10 -6 3 -3 -8 -19 -26 -35 -17
-16 -29 -29 -26 -29 3 0 -12 -19 -34 -42 -22 -24 -50 -60 -64 -80 -14 -20 -31
-39 -39 -42 -9 -3 -12 -10 -9 -16 3 -5 2 -10 -3 -10 -4 0 -33 -30 -63 -66 -30
-37 -60 -72 -66 -80 -7 -7 -13 -18 -13 -24 0 -6 -4 -9 -8 -6 -4 2 -19 -12 -32
-32 -14 -20 -31 -43 -37 -50 -12 -13 -17 -27 -14 -44 0 -5 -3 -8 -7 -8 -5 0
-10 -25 -11 -55 -2 -56 15 -125 32 -125 4 0 6 -4 3 -9 -7 -11 33 -63 44 -56 4
3 11 -2 14 -11 3 -8 10 -12 16 -9 5 3 10 1 10 -5 0 -6 4 -9 9 -6 5 4 11 1 13
-4 2 -6 19 -14 38 -17 19 -3 42 -6 50 -8 8 -1 29 2 45 7 17 5 35 10 40 12 40
9 74 39 145 126 53 65 81 99 95 114 59 65 103 124 97 130 -4 4 0 6 8 4 8 -2
14 3 13 10 -2 6 1 12 6 12 5 0 35 33 67 73 32 39 64 78 71 85 7 7 13 18 13 23
0 6 5 7 10 4 6 -3 10 1 10 9 0 9 5 16 10 16 6 0 10 7 10 16 0 8 4 13 9 10 7
-5 24 21 30 46 1 4 8 19 15 32 24 46 3 190 -30 203 -7 3 -14 10 -14 15 0 12
-52 54 -62 51 -5 -2 -8 2 -8 8 0 5 -4 8 -9 5 -5 -4 -11 -1 -13 5 -5 15 -115
19 -161 5z"/>
<path d="M2520 10330 c-109 -20 -190 -115 -191 -224 -2 -132 8 -142 399 -400
185 -122 351 -228 369 -235 74 -30 188 -5 248 54 41 41 68 111 67 170 -1 59
-14 98 -49 143 -21 28 -385 277 -648 443 -76 48 -129 61 -195 49z"/>
<path d="M11590 10312 c-16 -8 -30 -19 -30 -24 0 -5 -4 -7 -10 -3 -5 3 -18 -3
-29 -14 -11 -11 -22 -17 -25 -14 -3 3 -8 -2 -12 -11 -3 -9 -10 -14 -14 -11 -4
2 -19 -6 -34 -20 -14 -13 -26 -21 -26 -17 0 4 -7 -1 -14 -11 -8 -10 -17 -18
-20 -18 -12 1 -71 -35 -95 -59 -14 -13 -27 -23 -28 -22 -8 6 -21 -1 -46 -23
-15 -14 -27 -23 -27 -20 0 4 -7 -1 -16 -9 -8 -9 -22 -16 -29 -16 -8 0 -17 -5
-21 -12 -5 -7 -2 -8 7 -3 8 5 11 4 6 -1 -5 -5 -13 -10 -18 -10 -5 -1 -13 -2
-17 -3 -5 0 -18 -10 -30 -21 -12 -12 -22 -17 -22 -13 0 4 -7 -2 -15 -13 -8
-10 -15 -15 -15 -11 0 8 -15 -3 -52 -38 -11 -11 -17 -13 -12 -5 4 8 -6 4 -23
-10 -17 -14 -29 -26 -28 -28 2 -2 -5 -12 -16 -23 -11 -11 -17 -24 -14 -29 3
-4 0 -10 -5 -12 -6 -2 -12 -10 -13 -18 -2 -8 -5 -19 -8 -25 -14 -24 5 -145 24
-157 7 -4 8 -8 2 -8 -5 0 -1 -7 9 -15 11 -8 16 -15 11 -15 -4 0 0 -9 10 -20
10 -11 24 -20 32 -20 7 0 13 -4 13 -8 0 -18 78 -39 136 -37 64 3 131 27 140
50 4 8 10 13 14 10 4 -3 13 2 20 10 7 8 18 15 24 15 6 0 18 9 26 19 7 11 17
18 21 15 4 -2 21 7 37 21 16 14 33 25 36 25 3 0 29 16 56 35 27 19 54 35 59
35 6 0 16 9 24 20 8 11 17 17 20 14 4 -4 9 1 13 10 3 9 10 14 14 11 5 -3 21 5
37 18 15 12 62 44 103 72 41 27 78 54 82 60 4 5 8 6 8 2 0 -5 15 6 34 25 19
18 32 36 29 41 -2 4 0 7 6 7 16 0 39 91 35 136 -5 57 -37 127 -70 152 -16 12
-33 25 -39 30 -23 18 -38 25 -31 14 4 -6 -6 -5 -21 3 -35 19 -122 17 -163 -3z
m265 -62 c10 -11 16 -20 13 -20 -3 0 -13 9 -23 20 -10 11 -16 20 -13 20 3 0
13 -9 23 -20z"/>
<path d="M8848 9073 c-16 -3 -28 -9 -28 -14 0 -6 -4 -7 -10 -4 -9 6 -20 -1
-61 -37 -10 -10 -19 -15 -20 -10 0 4 -4 -4 -10 -16 -5 -13 -17 -26 -27 -29
-10 -2 -26 -17 -37 -34 -11 -16 -26 -29 -33 -29 -7 0 -11 -4 -8 -8 3 -5 -6
-15 -19 -22 -14 -7 -25 -17 -25 -22 0 -9 -35 -46 -47 -50 -5 -2 -8 -5 -7 -8 0
-6 -59 -64 -69 -67 -4 -2 -7 -6 -6 -9 0 -4 -12 -15 -28 -25 -15 -10 -25 -19
-21 -19 4 0 -3 -11 -15 -23 -12 -13 -24 -23 -27 -23 -3 1 -6 -2 -7 -6 -5 -13
-42 -48 -51 -48 -5 0 -15 -11 -22 -25 -7 -13 -16 -22 -20 -20 -4 3 -10 -5 -13
-16 -3 -11 -14 -23 -24 -25 -10 -3 -27 -18 -38 -34 -11 -16 -21 -27 -24 -24
-2 2 -12 -7 -21 -22 -10 -14 -20 -25 -24 -25 -3 1 -7 -2 -8 -6 -4 -10 -62 -69
-68 -69 -3 1 -6 -2 -7 -7 -5 -12 -42 -47 -51 -47 -5 0 -15 -11 -22 -25 -7 -13
-16 -22 -20 -20 -4 3 -10 -5 -13 -16 -3 -11 -14 -23 -24 -25 -10 -3 -27 -18
-38 -34 -11 -16 -21 -27 -24 -24 -2 2 -12 -7 -21 -22 -10 -14 -20 -25 -24 -25
-3 1 -6 -2 -5 -5 0 -4 -11 -14 -25 -24 -15 -9 -24 -19 -21 -22 3 -2 -6 -10
-19 -18 -13 -7 -27 -21 -29 -31 -3 -11 -13 -19 -22 -19 -9 0 -13 -4 -10 -10 3
-5 -1 -10 -9 -10 -9 0 -16 -4 -16 -9 0 -5 -13 -4 -30 2 -16 6 -30 15 -30 20 0
4 -4 5 -10 2 -5 -3 -10 -2 -10 3 0 10 -139 64 -175 68 -11 1 -20 3 -20 4 0 3
-40 11 -65 14 -14 1 -30 5 -35 8 -9 5 -246 3 -285 -2 -72 -10 -218 -58 -254
-83 -16 -12 -26 -15 -21 -7 5 8 -7 3 -26 -11 -19 -13 -38 -24 -42 -24 -4 0
-20 -11 -34 -25 -15 -14 -23 -18 -19 -10 4 8 0 6 -8 -4 -9 -11 -16 -17 -16
-13 0 3 -15 -7 -32 -24 -18 -16 -36 -29 -40 -29 -5 0 -8 -6 -8 -14 0 -8 -5
-18 -12 -22 -7 -5 -8 -2 -3 7 4 8 -12 -7 -36 -33 -59 -63 -70 -76 -68 -84 0
-4 -6 -11 -15 -16 -9 -5 -16 -16 -16 -23 0 -8 -4 -15 -10 -15 -5 0 -10 -7 -10
-15 0 -8 -5 -15 -11 -15 -5 0 -7 -4 -4 -10 3 -5 2 -10 -3 -10 -9 0 -34 -51
-34 -67 0 -4 -7 -16 -15 -25 -9 -10 -13 -18 -8 -18 4 0 2 -7 -5 -15 -7 -8 -9
-15 -4 -15 5 0 3 -4 -4 -9 -7 -4 -15 -21 -17 -37 -2 -16 -4 -30 -6 -31 -1 -2
-2 -6 -3 -10 -1 -5 -5 -14 -9 -20 -5 -7 -6 -13 -3 -13 2 0 -1 -24 -8 -52 -15
-65 -11 -358 4 -358 3 0 6 -8 6 -17 2 -28 14 -85 22 -97 3 -6 8 -20 9 -31 2
-11 8 -22 13 -23 6 -2 8 -8 4 -13 -3 -5 0 -9 7 -9 7 0 9 -3 6 -7 -4 -3 1 -15
10 -26 12 -13 13 -17 4 -12 -15 9 23 -61 43 -80 6 -6 12 -17 14 -25 2 -8 7
-17 10 -20 4 -3 20 -23 36 -45 50 -68 161 -170 239 -220 42 -26 79 -47 83 -45
4 1 10 -2 13 -7 6 -10 108 -53 132 -57 8 -1 19 -4 24 -8 27 -16 192 -41 275
-41 115 0 326 41 342 66 4 7 8 9 8 4 0 -10 73 21 82 36 4 7 8 8 8 4 0 -4 21 4
48 19 68 38 83 50 74 59 -4 5 -2 5 4 2 6 -3 22 4 35 16 13 12 27 21 31 19 5
-1 8 4 8 12 0 8 5 18 12 22 7 5 8 2 3 -7 -4 -8 3 -3 16 11 14 14 24 26 23 28
-1 2 17 21 39 42 22 22 36 40 31 40 -4 0 2 7 14 16 12 8 20 20 17 25 -4 5 -2
9 3 9 5 0 23 23 40 51 18 27 26 47 19 44 -6 -4 -3 1 7 9 11 9 16 16 12 16 -5
0 -3 7 4 15 7 8 9 15 4 15 -5 0 -4 4 2 8 14 10 44 88 37 96 -4 3 -1 6 6 6 7 0
11 8 10 18 -1 9 0 20 1 25 1 4 4 12 5 17 1 6 4 11 5 13 1 1 4 11 6 22 24 151
21 294 -9 420 -22 90 -31 115 -39 115 -5 0 -7 4 -4 8 3 5 -10 40 -29 78 -19
38 -35 72 -35 75 0 4 255 261 566 573 312 311 563 566 558 566 -4 0 0 6 9 13
9 6 19 23 21 37 3 14 5 25 7 25 8 0 6 97 -3 125 -13 40 -57 114 -64 107 -3 -3
-17 6 -31 19 -14 13 -29 21 -33 19 -5 -3 -10 -1 -12 5 -3 10 -88 19 -130 13z"/>
<path d="M1798 8839 c-48 -14 -114 -71 -140 -122 -24 -48 -28 -133 -9 -189 7
-21 32 -57 56 -81 46 -46 65 -53 470 -171 66 -19 291 -85 500 -147 239 -70
399 -113 432 -114 57 -2 125 25 169 66 97 91 82 281 -29 358 -32 21 -195 73
-682 216 -352 104 -660 190 -685 191 -25 2 -61 -2 -82 -7z"/>
<path d="M12320 8838 c-19 -5 -42 -12 -50 -15 -8 -3 -22 -7 -30 -8 -12 -2 -85
-23 -145 -42 -5 -2 -25 -6 -42 -9 -18 -4 -33 -9 -33 -13 0 -4 -9 -7 -21 -8
-11 -1 -44 -10 -72 -19 -29 -10 -56 -19 -62 -19 -5 -1 -12 -3 -15 -4 -3 -2
-12 -4 -20 -6 -8 -2 -40 -11 -70 -20 -30 -9 -63 -18 -72 -20 -9 -2 -25 -8 -35
-13 -10 -5 -24 -7 -30 -5 -7 3 -13 0 -13 -7 0 -6 -4 -9 -9 -5 -5 3 -12 1 -16
-5 -4 -6 -10 -8 -15 -5 -5 3 -25 -1 -45 -9 -19 -8 -35 -13 -35 -10 0 2 -16 -2
-35 -10 -19 -8 -35 -12 -35 -9 0 3 -7 0 -15 -7 -8 -7 -15 -10 -15 -7 0 3 -21
-2 -47 -10 -87 -27 -178 -54 -194 -58 -41 -9 -117 -38 -145 -56 -35 -21 -72
-59 -44 -45 8 4 4 -2 -10 -13 -14 -11 -20 -21 -15 -21 6 0 4 -4 -3 -9 -7 -4
-14 -18 -15 -29 -1 -12 -4 -22 -7 -22 -4 0 -6 -17 -5 -37 1 -21 3 -50 4 -65 0
-15 7 -33 14 -40 6 -7 13 -20 15 -28 4 -18 46 -59 84 -82 44 -29 112 -38 173
-24 41 10 59 14 65 16 3 1 8 2 13 1 4 0 7 4 7 10 0 5 4 8 8 5 5 -3 37 4 73 15
35 12 69 22 74 23 6 1 16 5 23 9 6 5 12 6 12 2 0 -3 16 1 35 9 19 8 35 13 35
11 0 -2 18 2 40 10 22 8 40 11 40 7 0 -4 4 -2 8 3 4 6 32 17 62 24 30 8 59 16
65 19 5 3 16 7 25 9 62 11 80 16 80 25 0 5 4 7 9 4 5 -4 22 -1 38 6 15 6 34
10 41 9 6 -1 12 2 12 6 0 5 8 9 18 10 17 1 55 10 60 13 2 3 2 3 52 14 19 5 40
11 45 14 10 6 13 7 50 16 11 2 20 5 20 6 0 2 16 6 50 14 11 2 21 5 23 6 1 2 5
3 10 4 4 1 34 10 67 20 33 10 69 20 79 22 11 2 22 7 25 11 3 5 12 9 20 11 18
4 83 54 77 59 -2 3 4 13 15 24 11 11 17 24 14 29 -3 4 0 10 6 12 13 4 23 138
11 138 -4 0 -8 10 -9 22 -1 11 -7 24 -13 28 -7 4 -12 11 -12 16 -1 16 -25 44
-31 37 -4 -3 -7 0 -7 8 0 15 -53 46 -95 56 -38 9 -80 10 -115 1z"/>
<path d="M1893 7540 c-46 -19 -49 -43 -48 -398 l1 -333 27 -26 26 -27 253 0
c244 -1 254 0 277 20 34 29 34 85 1 114 -21 19 -36 20 -217 20 l-193 0 0 83 0
83 167 1 167 1 23 27 c29 33 29 67 0 101 l-24 27 -166 1 -167 0 0 78 c0 43 3
78 8 78 4 1 92 2 195 3 185 2 189 2 208 26 26 32 24 77 -6 106 l-24 25 -243
-1 c-134 0 -253 -4 -265 -9z"/>
<path d="M11934 7541 c-3 -3 -10 -6 -16 -6 -6 0 -20 -12 -30 -26 -19 -25 -20
-44 -19 -365 1 -273 3 -341 14 -349 8 -5 15 -14 16 -20 2 -5 7 -9 12 -7 5 1 9
-2 9 -7 0 -17 72 -4 93 17 17 18 20 34 21 154 l1 133 150 1 c152 1 210 7 200
23 -2 5 1 11 9 14 18 7 15 65 -5 78 -8 5 -9 9 -4 9 6 0 1 6 -10 13 -13 8 -73
12 -180 12 l-160 0 -1 90 0 90 188 -1 c162 0 190 2 198 15 5 9 10 12 10 6 0
-5 6 2 14 17 18 34 1 102 -26 107 -5 0 -9 2 -10 2 -9 5 -469 4 -474 0z"/>
<path d="M6358 4858 c-7 -4 -8 -8 -3 -8 6 0 3 -5 -6 -10 -14 -8 -16 -123 -15
-1212 1 -699 5 -1209 10 -1217 7 -10 5 -12 -5 -7 -8 4 -3 -2 10 -13 13 -12 21
-24 17 -28 -3 -3 -67 -7 -141 -7 l-135 0 3 -46 2 -45 880 0 880 0 0 45 0 45
-133 1 c-72 0 -132 3 -132 7 0 4 7 18 15 31 14 21 16 84 16 479 1 383 3 456
15 461 8 3 14 1 14 -5 0 -6 4 -8 9 -5 5 3 12 -1 15 -10 3 -9 11 -12 18 -8 7 4
10 4 6 -1 -4 -4 -3 -14 3 -22 6 -7 9 -13 5 -13 -3 0 -1 -12 5 -27 16 -44 20
-90 24 -368 5 -279 8 -318 24 -323 6 -2 11 -12 11 -21 0 -21 33 -54 43 -44 4
3 7 -2 7 -12 0 -10 3 -15 7 -12 3 4 13 1 21 -5 16 -14 162 -20 162 -7 0 5 3 8
8 7 13 -4 52 13 52 23 0 5 5 9 11 9 20 0 59 54 66 90 4 23 3 1181 -1 1210 -9
60 -18 95 -26 106 -6 6 -7 14 -3 17 3 4 1 7 -5 7 -7 0 -11 3 -11 8 4 18 -24
71 -34 65 -5 -3 -7 -1 -4 4 4 6 -7 29 -23 51 -35 48 -163 182 -175 182 -4 0
-15 8 -24 18 -9 10 -32 29 -51 42 -19 14 -43 33 -53 43 -10 10 -23 15 -29 11
-6 -4 -8 -3 -5 3 6 10 -3 17 -25 22 -4 1 -19 12 -32 24 -24 23 -25 24 -25 225
0 194 -8 251 -32 237 -5 -4 -9 -2 -9 3 0 11 -1205 11 -1222 0z m1113 -287 c4
-20 3 -641 -1 -642 -3 -1 -227 -2 -497 -3 -325 -1 -493 2 -494 9 0 5 -1 152
-2 326 l-2 316 498 0 c273 0 498 -3 498 -6z m246 -388 c117 -124 125 -146 132
-390 7 -219 1 -205 109 -259 35 -17 69 -43 83 -63 l24 -35 2 -392 c2 -429 1
-433 -58 -477 -34 -24 -94 -25 -121 -1 -44 41 -52 71 -49 209 1 72 2 144 3
160 0 17 -2 75 -6 130 -11 205 -28 252 -111 311 -33 23 -61 40 -63 39 -2 -2
-12 5 -21 14 -17 17 -18 50 -18 429 0 227 2 412 6 412 3 0 42 -39 88 -87z"/>
</g>
</svg>
